# xmcd
#
# Track frame offsets: 
#        150
#        19835
#        38906
#        54020
#        74535
#        92834
#        113704
#        129579
#        147139
#        169210
#        188170
#        209444
#        256705
#
# Disc length: 3574 seconds
#
# Revision: 0
# Processed by: cddbd v1.5.2PL0 Copyright (c) Steve Scherf et al.
# Submitted via: ExactAudioCopy v0.99pb5
#
DISCID=b30df40d
DTITLE=Carl Marshall - Going Back To The Blues
DYEAR=2012
DGENRE=Blues
TTITLE0=Just Blues
TTITLE1=Food and Blues At The Sugar Shack
TTITLE2=Dog Walkin' Woman
TTITLE3=Going Back To The Blues
TTITLE4=Funky N'Awlins
TTITLE5=Alberta
TTITLE6=I Spend Money On My Woman
TTITLE7=I Won't You Take Nothin' From Me
TTITLE8=I'm Leeting My Problems Go
TTITLE9=Funky N'Awlins 2
TTITLE10=I Got The Blues Trying To Find Love
TTITLE11=Evrybody Got A Blues Song To Sing
TTITLE12=The Star Spangled Banner
EXTD=
EXTT0=
EXTT1=
EXTT2=
EXTT3=
EXTT4=
EXTT5=
EXTT6=
EXTT7=
EXTT8=
EXTT9=
EXTT10=
EXTT11=
EXTT12=
PLAYORDER=
